<?xml version="1.0" standalone="no"?>
<!DOCTYPE svg PUBLIC "-//W3C//DTD SVG 20010904//EN"
 "http://www.w3.org/TR/2001/REC-SVG-20010904/DTD/svg10.dtd">
<svg version="1.0" xmlns="http://www.w3.org/2000/svg"
 width="700.000000pt" height="700.000000pt" viewBox="0 0 700.000000 700.000000"
 preserveAspectRatio="xMidYMid meet">
<metadata>
Created by potrace 1.11, written by Peter Selinger 2001-2013
</metadata>
<g transform="translate(0.000000,700.000000) scale(0.100000,-0.100000)"
fill="#000000" stroke="none">
<path d="M296 6500 c-79 -31 -140 -101 -160 -184 -4 -16 -7 -133 -7 -260 l1
-231 30 -61 c32 -65 85 -111 153 -134 21 -6 85 -12 141 -12 l103 0 -1 -1237
-1 -1236 -95 -1 c-53 0 -120 -4 -150 -8 -117 -16 -220 -93 -274 -206 l-31 -65
-2 -485 c-3 -504 -1 -537 40 -616 36 -69 134 -149 217 -177 14 -5 103 -10 199
-13 96 -2 176 -5 177 -7 2 -2 6 -39 10 -83 37 -495 415 -905 914 -990 58 -9
259 -11 330 -2 170 22 373 109 515 222 253 201 406 498 418 814 1 23 4 42 7
43 7 0 971 0 996 0 19 -1 21 -8 23 -58 7 -252 128 -521 316 -708 169 -169 361
-268 598 -309 75 -13 295 -14 347 -2 14 3 49 11 79 17 177 36 384 153 521 293
98 100 144 165 206 291 65 133 97 249 110 405 3 36 7 67 9 68 2 2 156 4 342 4
365 1 399 5 475 60 92 65 142 159 142 268 1 41 -6 95 -14 120 -9 30 -97 154
-255 364 -132 175 -249 331 -259 345 -212 287 -249 327 -340 370 -74 35 -117
43 -244 43 l-97 1 0 661 c0 363 -3 675 -8 691 -15 51 -31 79 -62 109 -49 46
-90 59 -205 62 -58 2 -111 3 -117 3 -10 1 -12 103 -12 461 l1 460 67 0 c82 0
135 27 168 85 21 38 23 51 23 232 0 199 -5 230 -43 271 -53 58 -26 56 -727 56
-712 0 -677 3 -733 -64 -36 -42 -39 -69 -35 -287 3 -188 3 -190 30 -225 37
-49 83 -68 160 -68 l65 0 0 -454 c0 -250 3 -458 6 -462 3 -5 -283 -9 -641 -9
l-647 0 0 476 0 476 102 1 c56 0 119 6 141 11 80 22 153 96 178 182 7 20 11
132 10 270 l-1 235 -30 60 c-32 62 -94 114 -159 133 -18 5 -655 9 -1501 10
-1426 0 -1471 -1 -1519 -19z"/>
</g>
</svg>
